<svg
    xmlns:xlink="http://www.w3.org/1999/xlink" width="39" height="141" text-rendering="optimizeLegibility" style="border: 0px; margin: 0px; padding: 0;" id="bit-booster">
    <path d="M9,11C8,37.25,25,19.75,24,35" stroke-width="2" stroke-opacity="1" opacity="1" fill="none" stroke="#79c753"></path>
    <path d="M24,107C25,133.25,8,115.75,9,131" stroke-width="2" stroke-opacity="1" opacity="1" fill="none" stroke="#79c753"></path>
    <path d="M9,107L9,131" stroke-width="2" stroke-opacity="1" opacity="1" stroke="#034f84"></path>
    <path d="M9,83L9,107" stroke-width="2" stroke-opacity="1" opacity="1" stroke="#034f84"></path>
    <path d="M24,59L24,107" stroke-width="2" stroke-opacity="1" opacity="1" stroke="#79c753"></path>
    <path d="M24,35L24,59" stroke-width="2" stroke-opacity="1" opacity="1" stroke="#79c753"></path>
    <path d="M9,11L9,83" stroke-width="2" stroke-opacity="1" opacity="1" stroke="#034f84"></path>
    <path d="M24,35L24,35" stroke-width="2" stroke-opacity="1" opacity="1" stroke="#79c753"></path>
    <circle id="C_fichier" cx="9" cy="131" r="4" fill="#034f84" stroke="none"></circle>
    <circle id="C_fichier.old" cx="9" cy="107" r="4" fill="#034f84" stroke="none"></circle>
    <circle id="C_fichier.old.relu" cx="9" cy="83" r="4" fill="#034f84" stroke="none"></circle>
    <circle id="C_fichier.v2" cx="24" cy="59" r="4" fill="#79c753" stroke="none"></circle>
    <circle id="C_fichier.final" cx="24" cy="35" r="4" fill="#79c753" stroke="none"></circle>
    <circle id="C_fichier.en-cours" cx="9" cy="11" r="4" fill="#034f84" stroke="none"></circle>
</svg>